<svg width="72" height="73" viewBox="0 0 72 73" fill="none" xmlns="http://www.w3.org/2000/svg">
<ellipse cx="36.2308" cy="67.4616" rx="33.2308" ry="5.53846" fill="#445F4F"/>
<path d="M41.2545 3.21538H50.6311V1H40.6619C40.2916 0.999945 39.9458 1.18491 39.7403 1.49292L37.5249 4.816L39.3681 6.04554L41.2545 3.21538Z" fill="#333333"/>
<path d="M31.2072 65.2467H21.8306V67.462H31.7998C32.1701 67.4621 32.5159 67.2771 32.7214 66.9691L34.9368 63.646L33.0936 62.4165L31.2072 65.2467Z" fill="#333333"/>
<ellipse cx="48.415" cy="52.583" rx="19.9385" ry="12.8144" fill="#4EA824"/>
<path fill-rule="evenodd" clip-rule="evenodd" d="M48.4154 25.3692C44.5609 25.3643 40.7808 26.4304 37.4969 28.4486L36.922 27.6433C37.1644 27.1358 37.3792 26.6155 37.5655 26.0848L41.952 25.3537C42.4857 25.2644 42.8768 24.8026 42.8769 24.2615V17.6154C42.8768 17.0743 42.4857 16.6125 41.952 16.5232L37.5655 15.7921C37.3792 15.2614 37.1644 14.7411 36.922 14.2336L39.5051 10.617C39.8195 10.1763 39.7694 9.573 39.3866 9.19028L34.6866 4.49034C34.3039 4.10753 33.7006 4.05741 33.2599 4.37182L29.6433 6.95495C29.1357 6.7144 28.6154 6.50142 28.0848 6.31692L27.3537 1.93046C27.2669 1.39457 26.8044 1.00061 26.2615 1H19.6154C19.0743 1.00016 18.6125 1.39123 18.5232 1.92492L17.7921 6.31138C17.2614 6.49769 16.7411 6.71252 16.2336 6.95495L12.617 4.37182C12.1763 4.05741 11.573 4.10753 11.1903 4.49034L6.49034 9.19028C6.10753 9.573 6.05741 10.1763 6.37182 10.617L8.96714 14.2502C8.72665 14.7507 8.51474 15.2643 8.33243 15.7888L3.92492 16.5232C3.39123 16.6125 3.00016 17.0743 3 17.6154V24.2615C3.00016 24.8026 3.39123 25.2644 3.92492 25.3537L8.33132 26.0881C8.51278 26.6153 8.72093 27.1329 8.95495 27.6389L6.37182 31.2599C6.05741 31.7006 6.10753 32.3039 6.49034 32.6866L11.1903 37.3866C11.573 37.7694 12.1763 37.8195 12.617 37.5051L16.2336 34.922C16.7411 35.1644 17.2614 35.3792 17.7921 35.5655L18.5232 39.952C18.6125 40.4857 19.0743 40.8768 19.6154 40.8769H26.2615C26.8026 40.8768 27.2644 40.4857 27.3537 39.952L28.0848 35.5655C28.6155 35.3792 29.1358 35.1644 29.6433 34.922L30.4486 35.4969C28.4304 38.7808 27.3643 42.5609 27.3692 46.4154C27.3692 58.0389 36.7919 67.4615 48.4154 67.4615C60.0389 67.4615 69.4615 58.0389 69.4615 46.4154C69.4615 34.7919 60.0389 25.3692 48.4154 25.3692ZM29.2163 32.654C28.4395 33.0694 27.6231 33.4063 26.7794 33.6598C26.3746 33.7807 26.0738 34.1214 26.004 34.5382L25.3228 38.661H20.5531L19.8663 34.5382C19.7965 34.1214 19.4957 33.7807 19.0909 33.6598C18.2472 33.4063 17.4308 33.0694 16.654 32.654C16.2824 32.4544 15.8298 32.4832 15.4865 32.7282L12.0859 35.1563L8.71958 31.7844L11.1476 28.3838C11.3926 28.0405 11.4214 27.5879 11.2219 27.2163C10.8071 26.4198 10.465 25.5875 10.1995 24.7296C10.0643 24.3512 9.73501 24.0757 9.33878 24.0096L5.21484 23.3228V18.5531L9.33767 17.8663C9.7339 17.8001 10.0632 17.5246 10.1984 17.1463C10.4836 16.2759 10.8343 15.4283 11.2473 14.6108C11.4197 14.2474 11.3815 13.8192 11.1476 13.492L8.71958 10.0914L12.0914 6.71958L15.492 9.14764C15.8353 9.39263 16.288 9.4214 16.6595 9.22186C17.4364 8.80645 18.2527 8.46952 19.0964 8.21607C19.5013 8.09512 19.802 7.75439 19.8718 7.33767L20.5531 3.21484H25.3228L26.0096 7.33767C26.0793 7.75439 26.3801 8.09512 26.7849 8.21607C27.6286 8.46952 28.445 8.80645 29.2219 9.22186C29.5934 9.4214 30.0461 9.39263 30.3894 9.14764L33.79 6.71958L37.1618 10.0914L34.7337 13.492C34.4888 13.8353 34.46 14.288 34.6595 14.6595C35.0749 15.4364 35.4119 16.2527 35.6653 17.0964C35.7863 17.5013 36.127 17.802 36.5437 17.8718L40.6665 18.5586V23.3283L36.5437 24.0151C36.127 24.0849 35.7863 24.3856 35.6653 24.7905C35.4119 25.6342 35.0749 26.4505 34.6595 27.2274C34.46 27.599 34.4888 28.0516 34.7337 28.3949L37.1618 31.7955L33.79 35.1673L30.3894 32.7393C30.047 32.4885 29.5914 32.4553 29.2163 32.654ZM49.5225 61.9225V65.1891C59.0339 64.6201 66.6201 57.0339 67.1891 47.5225H63.9225V45.3071H67.1891C66.6201 35.7957 59.0339 28.2094 49.5225 27.6405V30.9071H47.3071V27.625C44.2952 27.795 41.3702 28.6968 38.7856 30.2524L39.5045 31.2593C39.8189 31.7 39.7688 32.3033 39.386 32.686L34.686 37.386C34.3033 37.7688 33.7 37.8189 33.2593 37.5045L32.2524 36.7856C30.6968 39.3702 29.795 42.2952 29.625 45.3071H32.9071V47.5225H29.6405C30.2094 57.0339 37.7957 64.6201 47.3071 65.1891V61.9225H49.5225Z" fill="#333333"/>
<path d="M37.4969 28.4486L37.3748 28.5358L37.4561 28.6497L37.5754 28.5764L37.4969 28.4486ZM48.4154 25.3692L48.4152 25.5192H48.4154V25.3692ZM36.922 27.6433L36.7866 27.5787L36.7485 27.6585L36.7999 27.7305L36.922 27.6433ZM37.5655 26.0848L37.5409 25.9368L37.4534 25.9514L37.424 26.0351L37.5655 26.0848ZM41.952 25.3537L41.9767 25.5017L41.9767 25.5017L41.952 25.3537ZM42.8769 24.2615L43.0269 24.2616V24.2615H42.8769ZM42.8769 17.6154H43.0269V17.6153L42.8769 17.6154ZM41.952 16.5232L41.9767 16.3753L41.9767 16.3752L41.952 16.5232ZM37.5655 15.7921L37.424 15.8418L37.4534 15.9255L37.5409 15.9401L37.5655 15.7921ZM36.922 14.2336L36.7999 14.1464L36.7485 14.2184L36.7866 14.2983L36.922 14.2336ZM39.5051 10.617L39.6272 10.7042L39.6272 10.7041L39.5051 10.617ZM39.3866 9.19028L39.2805 9.29634L39.2805 9.29635L39.3866 9.19028ZM34.6866 4.49034L34.5806 4.59639L34.5806 4.5964L34.6866 4.49034ZM33.2599 4.37182L33.1728 4.24971L33.1728 4.24975L33.2599 4.37182ZM29.6433 6.95495L29.5791 7.09051L29.6588 7.12826L29.7305 7.07702L29.6433 6.95495ZM28.0848 6.31692L27.9368 6.34158L27.9515 6.42937L28.0355 6.4586L28.0848 6.31692ZM27.3537 1.93046L27.2057 1.95446L27.2058 1.95512L27.3537 1.93046ZM26.2615 1L26.2617 0.85H26.2615V1ZM19.6154 1V0.85H19.6153L19.6154 1ZM18.5232 1.92492L18.3753 1.90017L18.3752 1.90026L18.5232 1.92492ZM17.7921 6.31138L17.8418 6.45292L17.9255 6.42354L17.9401 6.33604L17.7921 6.31138ZM16.2336 6.95495L16.1464 7.07702L16.2184 7.12844L16.2983 7.09031L16.2336 6.95495ZM12.617 4.37182L12.7042 4.24975L12.7041 4.24971L12.617 4.37182ZM11.1903 4.49034L11.2963 4.5964L11.2964 4.59639L11.1903 4.49034ZM6.49034 9.19028L6.59639 9.29635L6.5964 9.29634L6.49034 9.19028ZM6.37182 10.617L6.24971 10.7041L6.24976 10.7042L6.37182 10.617ZM8.96714 14.2502L9.10234 14.3152L9.14077 14.2352L9.0892 14.163L8.96714 14.2502ZM8.33243 15.7888L8.35708 15.9368L8.44489 15.9221L8.47411 15.8381L8.33243 15.7888ZM3.92492 16.5232L3.90027 16.3752L3.90017 16.3753L3.92492 16.5232ZM3 17.6154L2.85 17.6153V17.6154H3ZM3 24.2615H2.85V24.2616L3 24.2615ZM3.92492 25.3537L3.90017 25.5017L3.90026 25.5017L3.92492 25.3537ZM8.33132 26.0881L8.47316 26.0393L8.44408 25.9548L8.35598 25.9402L8.33132 26.0881ZM8.95495 27.6389L9.07707 27.726L9.12769 27.655L9.0911 27.5759L8.95495 27.6389ZM6.37182 31.2599L6.49392 31.3471L6.49393 31.3471L6.37182 31.2599ZM6.49034 32.6866L6.5964 32.5806L6.59639 32.5806L6.49034 32.6866ZM11.1903 37.3866L11.2964 37.2805L11.2963 37.2805L11.1903 37.3866ZM12.617 37.5051L12.7041 37.6272L12.7042 37.6272L12.617 37.5051ZM16.2336 34.922L16.2983 34.7866L16.2184 34.7485L16.1464 34.7999L16.2336 34.922ZM17.7921 35.5655L17.9401 35.5409L17.9255 35.4534L17.8418 35.424L17.7921 35.5655ZM18.5232 39.952L18.3752 39.9767L18.3753 39.9767L18.5232 39.952ZM19.6154 40.8769L19.6153 41.0269H19.6154V40.8769ZM26.2615 40.8769V41.0269H26.2616L26.2615 40.8769ZM27.3537 39.952L27.5017 39.9767L27.5017 39.9767L27.3537 39.952ZM28.0848 35.5655L28.0351 35.424L27.9514 35.4534L27.9368 35.5409L28.0848 35.5655ZM29.6433 34.922L29.7305 34.7999L29.6585 34.7485L29.5787 34.7866L29.6433 34.922ZM30.4486 35.4969L30.5764 35.5754L30.6497 35.4561L30.5358 35.3748L30.4486 35.4969ZM27.3692 46.4154H27.5192V46.4152L27.3692 46.4154ZM26.7794 33.6598L26.8223 33.8035L26.8226 33.8034L26.7794 33.6598ZM29.2163 32.654L29.1461 32.5214L29.1456 32.5217L29.2163 32.654ZM26.004 34.5382L25.8561 34.5134L25.856 34.5137L26.004 34.5382ZM25.3228 38.661V38.811H25.45L25.4708 38.6855L25.3228 38.661ZM20.5531 38.661L20.4051 38.6856L20.426 38.811H20.5531V38.661ZM19.8663 34.5382L20.0143 34.5135L20.0142 34.5134L19.8663 34.5382ZM19.0909 33.6598L19.0478 33.8034L19.048 33.8035L19.0909 33.6598ZM16.654 32.654L16.583 32.7861L16.5833 32.7863L16.654 32.654ZM15.4865 32.7282L15.3993 32.6061L15.3993 32.6061L15.4865 32.7282ZM12.0859 35.1563L11.9797 35.2622L12.0695 35.3522L12.173 35.2783L12.0859 35.1563ZM8.71958 31.7844L8.59751 31.6973L8.52374 31.8006L8.61343 31.8904L8.71958 31.7844ZM11.1476 28.3838L11.2697 28.471L11.2697 28.471L11.1476 28.3838ZM11.2219 27.2163L11.0888 27.2856L11.0897 27.2873L11.2219 27.2163ZM10.1995 24.7296L10.3429 24.6852L10.3407 24.6791L10.1995 24.7296ZM9.33878 24.0096L9.36349 23.8616L9.36342 23.8616L9.33878 24.0096ZM5.21484 23.3228H5.06484V23.4499L5.1902 23.4707L5.21484 23.3228ZM5.21484 18.5531L5.1902 18.4051L5.06484 18.426V18.5531H5.21484ZM9.33767 17.8663L9.36232 18.0143L9.36239 18.0142L9.33767 17.8663ZM10.1984 17.1463L10.3397 17.1968L10.3409 17.193L10.1984 17.1463ZM11.2473 14.6108L11.3813 14.6785L11.3829 14.6751L11.2473 14.6108ZM11.1476 13.492L11.0256 13.5792L11.0256 13.5792L11.1476 13.492ZM8.71958 10.0914L8.61352 9.98533L8.52368 10.0752L8.59751 10.1786L8.71958 10.0914ZM12.0914 6.71958L12.1786 6.59751L12.0752 6.52368L11.9853 6.61352L12.0914 6.71958ZM15.492 9.14764L15.4049 9.26972L15.4049 9.26974L15.492 9.14764ZM16.6595 9.22186L16.5888 9.08958L16.5886 9.08971L16.6595 9.22186ZM19.0964 8.21607L19.0535 8.07235L19.0533 8.07242L19.0964 8.21607ZM19.8718 7.33767L20.0198 7.36245L20.0198 7.36213L19.8718 7.33767ZM20.5531 3.21484V3.06484H20.4258L20.4051 3.19039L20.5531 3.21484ZM25.3228 3.21484L25.4707 3.1902L25.4499 3.06484H25.3228V3.21484ZM26.0096 7.33767L25.8616 7.36232L25.8616 7.36245L26.0096 7.33767ZM26.7849 8.21607L26.8281 8.07242L26.8279 8.07235L26.7849 8.21607ZM29.2219 9.22186L29.2928 9.08971L29.2926 9.08958L29.2219 9.22186ZM30.3894 9.14764L30.4765 9.26974L30.4765 9.26972L30.3894 9.14764ZM33.79 6.71958L33.896 6.61352L33.8062 6.52368L33.7028 6.59751L33.79 6.71958ZM37.1618 10.0914L37.2839 10.1786L37.3577 10.0752L37.2679 9.98533L37.1618 10.0914ZM34.7337 13.492L34.6117 13.4049L34.6116 13.4049L34.7337 13.492ZM34.6595 14.6595L34.7918 14.5888L34.7917 14.5886L34.6595 14.6595ZM35.6653 17.0964L35.809 17.0535L35.809 17.0533L35.6653 17.0964ZM36.5437 17.8718L36.5189 18.0198L36.5191 18.0198L36.5437 17.8718ZM40.6665 18.5586H40.8165V18.4315L40.6912 18.4106L40.6665 18.5586ZM40.6665 23.3283L40.6912 23.4763L40.8165 23.4554V23.3283H40.6665ZM36.5437 24.0151L36.5191 23.8671L36.5189 23.8672L36.5437 24.0151ZM35.6653 24.7905L35.809 24.8336L35.809 24.8334L35.6653 24.7905ZM34.6595 27.2274L34.7917 27.2984L34.7918 27.2981L34.6595 27.2274ZM34.7337 28.3949L34.6116 28.482L34.6117 28.4821L34.7337 28.3949ZM37.1618 31.7955L37.2679 31.9016L37.3577 31.8118L37.2839 31.7084L37.1618 31.7955ZM33.79 35.1673L33.7028 35.2894L33.8062 35.3632L33.896 35.2734L33.79 35.1673ZM30.3894 32.7393L30.3007 32.8603L30.3022 32.8614L30.3894 32.7393ZM49.5225 65.1891H49.3725V65.3483L49.5314 65.3388L49.5225 65.1891ZM49.5225 61.9225H49.6725V61.7725H49.5225V61.9225ZM67.1891 47.5225L67.3388 47.5314L67.3483 47.3725H67.1891V47.5225ZM63.9225 47.5225H63.7725V47.6725H63.9225V47.5225ZM63.9225 45.3071V45.1571H63.7725V45.3071H63.9225ZM67.1891 45.3071V45.4571H67.3483L67.3388 45.2981L67.1891 45.3071ZM49.5225 27.6405L49.5314 27.4908L49.3725 27.4813V27.6405H49.5225ZM49.5225 30.9071V31.0571H49.6725V30.9071H49.5225ZM47.3071 30.9071H47.1571V31.0571H47.3071V30.9071ZM47.3071 27.625H47.4571V27.4663L47.2986 27.4752L47.3071 27.625ZM38.7856 30.2524L38.7083 30.1239L38.5693 30.2076L38.6635 30.3396L38.7856 30.2524ZM39.5045 31.2593L39.6266 31.1722L39.6266 31.1722L39.5045 31.2593ZM39.386 32.686L39.2799 32.58L39.2799 32.58L39.386 32.686ZM34.686 37.386L34.58 37.2799L34.58 37.2799L34.686 37.386ZM33.2593 37.5045L33.1722 37.6266L33.1722 37.6266L33.2593 37.5045ZM32.2524 36.7856L32.3396 36.6635L32.2076 36.5693L32.1239 36.7083L32.2524 36.7856ZM29.625 45.3071L29.4752 45.2986L29.4663 45.4571H29.625V45.3071ZM32.9071 45.3071H33.0571V45.1571H32.9071V45.3071ZM32.9071 47.5225V47.6725H33.0571V47.5225H32.9071ZM29.6405 47.5225V47.3725H29.4813L29.4908 47.5314L29.6405 47.5225ZM47.3071 65.1891L47.2981 65.3388L47.4571 65.3483V65.1891H47.3071ZM47.3071 61.9225V61.7725H47.1571V61.9225H47.3071ZM37.5754 28.5764C40.8356 26.5727 44.5885 25.5143 48.4152 25.5192L48.4156 25.2192C44.5333 25.2142 40.7259 26.288 37.4183 28.3208L37.5754 28.5764ZM36.7999 27.7305L37.3748 28.5358L37.6189 28.3615L37.0441 27.5562L36.7999 27.7305ZM37.424 26.0351C37.2395 26.5607 37.0267 27.076 36.7866 27.5787L37.0573 27.708C37.3021 27.1956 37.519 26.6703 37.7071 26.1345L37.424 26.0351ZM41.9273 25.2058L37.5409 25.9368L37.5902 26.2328L41.9767 25.5017L41.9273 25.2058ZM42.7269 24.2615C42.7268 24.7293 42.3887 25.1286 41.9272 25.2058L41.9767 25.5017C42.5827 25.4003 43.0267 24.876 43.0269 24.2616L42.7269 24.2615ZM42.7269 17.6154V24.2615H43.0269V17.6154H42.7269ZM41.9272 16.6711C42.3887 16.7483 42.7268 17.1476 42.7269 17.6154L43.0269 17.6153C43.0267 17.001 42.5827 16.4766 41.9767 16.3753L41.9272 16.6711ZM37.5409 15.9401L41.9273 16.6712L41.9767 16.3752L37.5902 15.6442L37.5409 15.9401ZM36.7866 14.2983C37.0267 14.8009 37.2395 15.3162 37.424 15.8418L37.7071 15.7424C37.519 15.2066 37.3021 14.6814 37.0573 14.1689L36.7866 14.2983ZM39.383 10.5298L36.7999 14.1464L37.044 14.3208L39.6272 10.7042L39.383 10.5298ZM39.2805 9.29635C39.6115 9.62725 39.6548 10.1489 39.383 10.5299L39.6272 10.7041C39.9842 10.2038 39.9273 9.51875 39.4926 9.0842L39.2805 9.29635ZM34.5806 4.5964L39.2805 9.29634L39.4927 9.08421L34.7927 4.38427L34.5806 4.5964ZM33.3471 4.49392C33.728 4.22209 34.2497 4.26543 34.5806 4.59639L34.7927 4.38428C34.3582 3.94964 33.6731 3.89273 33.1728 4.24971L33.3471 4.49392ZM29.7305 7.07702L33.3471 4.49388L33.1728 4.24975L29.5561 6.83289L29.7305 7.07702ZM28.0355 6.4586C28.561 6.64132 29.0763 6.85227 29.5791 7.09051L29.7076 6.8194C29.195 6.57654 28.6698 6.36151 28.1341 6.17524L28.0355 6.4586ZM27.2058 1.95512L27.9368 6.34158L28.2328 6.29226L27.5017 1.9058L27.2058 1.95512ZM26.2614 1.15C26.7307 1.15052 27.1306 1.49114 27.2057 1.95446L27.5018 1.90646C27.4032 1.298 26.8781 0.850689 26.2617 0.85L26.2614 1.15ZM19.6154 1.15H26.2615V0.85H19.6154V1.15ZM18.6711 1.94967C18.7483 1.48825 19.1476 1.15014 19.6154 1.15L19.6153 0.85C19.001 0.85018 18.4766 1.29421 18.3753 1.90017L18.6711 1.94967ZM17.9401 6.33604L18.6712 1.94958L18.3752 1.90026L17.6442 6.28673L17.9401 6.33604ZM16.2983 7.09031C16.8009 6.8502 17.3162 6.63743 17.8418 6.45292L17.7424 6.16985C17.2066 6.35794 16.6814 6.57484 16.1689 6.8196L16.2983 7.09031ZM12.5298 4.49388L16.1464 7.07702L16.3208 6.83289L12.7042 4.24975L12.5298 4.49388ZM11.2964 4.59639C11.6273 4.26543 12.1489 4.22209 12.5299 4.49392L12.7041 4.24971C12.2038 3.89273 11.5188 3.94964 11.0842 4.38428L11.2964 4.59639ZM6.5964 9.29634L11.2963 4.5964L11.0842 4.38427L6.38427 9.08421L6.5964 9.29634ZM6.49392 10.5299C6.22209 10.1489 6.26543 9.62725 6.59639 9.29635L6.38428 9.0842C5.94964 9.51875 5.89273 10.2038 6.24971 10.7041L6.49392 10.5299ZM9.0892 14.163L6.49387 10.5298L6.24976 10.7042L8.84508 14.3374L9.0892 14.163ZM8.47411 15.8381C8.65456 15.319 8.8643 14.8105 9.10234 14.3152L8.83194 14.1852C8.58899 14.6908 8.37491 15.2097 8.19075 15.7396L8.47411 15.8381ZM3.94958 16.6712L8.35708 15.9368L8.30778 15.6408L3.90027 16.3752L3.94958 16.6712ZM3.15 17.6154C3.15014 17.1476 3.48825 16.7483 3.94967 16.6711L3.90017 16.3753C3.29421 16.4766 2.85018 17.001 2.85 17.6153L3.15 17.6154ZM3.15 24.2615V17.6154H2.85V24.2615H3.15ZM3.94967 25.2058C3.48826 25.1286 3.15014 24.7293 3.15 24.2615L2.85 24.2616C2.85018 24.876 3.29421 25.4003 3.90017 25.5017L3.94967 25.2058ZM8.35598 25.9402L3.94958 25.2058L3.90026 25.5017L8.30666 26.2361L8.35598 25.9402ZM9.0911 27.5759C8.85921 27.0745 8.65296 26.5617 8.47316 26.0393L8.18949 26.1369C8.37261 26.6689 8.58265 27.1912 8.81881 27.7019L9.0911 27.5759ZM6.49393 31.3471L9.07707 27.726L8.83284 27.5518L6.2497 31.1728L6.49393 31.3471ZM6.59639 32.5806C6.26543 32.2497 6.22209 31.728 6.49392 31.3471L6.24971 31.1728C5.89273 31.6731 5.94964 32.3582 6.38428 32.7927L6.59639 32.5806ZM11.2963 37.2805L6.5964 32.5806L6.38427 32.7927L11.0842 37.4927L11.2963 37.2805ZM12.5299 37.383C12.1489 37.6548 11.6273 37.6115 11.2964 37.2805L11.0842 37.4926C11.5188 37.9273 12.2038 37.9842 12.7041 37.6272L12.5299 37.383ZM16.1464 34.7999L12.5298 37.383L12.7042 37.6272L16.3208 35.044L16.1464 34.7999ZM17.8418 35.424C17.3162 35.2395 16.8009 35.0267 16.2983 34.7866L16.1689 35.0573C16.6814 35.3021 17.2066 35.519 17.7424 35.7071L17.8418 35.424ZM18.6712 39.9273L17.9401 35.5409L17.6442 35.5902L18.3752 39.9767L18.6712 39.9273ZM19.6154 40.7269C19.1476 40.7268 18.7483 40.3887 18.6711 39.9272L18.3753 39.9767C18.4766 40.5827 19.001 41.0267 19.6153 41.0269L19.6154 40.7269ZM26.2615 40.7269H19.6154V41.0269H26.2615V40.7269ZM27.2058 39.9272C27.1286 40.3887 26.7293 40.7268 26.2615 40.7269L26.2616 41.0269C26.876 41.0267 27.4003 40.5827 27.5017 39.9767L27.2058 39.9272ZM27.9368 35.5409L27.2058 39.9273L27.5017 39.9767L28.2328 35.5902L27.9368 35.5409ZM29.5787 34.7866C29.076 35.0267 28.5607 35.2395 28.0351 35.424L28.1345 35.7071C28.6703 35.519 29.1956 35.3021 29.708 35.0573L29.5787 34.7866ZM30.5358 35.3748L29.7305 34.7999L29.5562 35.0441L30.3615 35.6189L30.5358 35.3748ZM27.5192 46.4152C27.5143 42.5885 28.5727 38.8356 30.5764 35.5754L30.3208 35.4183C28.288 38.7259 27.2142 42.5333 27.2192 46.4156L27.5192 46.4152ZM48.4154 67.3115C36.8748 67.3115 27.5192 57.956 27.5192 46.4154H27.2192C27.2192 58.1217 36.7091 67.6115 48.4154 67.6115V67.3115ZM69.3115 46.4154C69.3115 57.956 59.956 67.3115 48.4154 67.3115V67.6115C60.1217 67.6115 69.6115 58.1217 69.6115 46.4154H69.3115ZM48.4154 25.5192C59.956 25.5192 69.3115 34.8748 69.3115 46.4154H69.6115C69.6115 34.7091 60.1217 25.2192 48.4154 25.2192V25.5192ZM26.8226 33.8034C27.6758 33.5471 28.5014 33.2064 29.2871 32.7863L29.1456 32.5217C28.3775 32.9324 27.5704 33.2655 26.7362 33.5161L26.8226 33.8034ZM26.152 34.5629C26.2123 34.2027 26.4723 33.9081 26.8223 33.8035L26.7365 33.516C26.2768 33.6534 25.9353 34.0402 25.8561 34.5134L26.152 34.5629ZM25.4708 38.6855L26.152 34.5626L25.856 34.5137L25.1748 38.6365L25.4708 38.6855ZM20.5531 38.811H25.3228V38.511H20.5531V38.811ZM19.7183 34.5628L20.4051 38.6856L20.701 38.6364L20.0143 34.5135L19.7183 34.5628ZM19.048 33.8035C19.398 33.9081 19.658 34.2027 19.7184 34.5629L20.0142 34.5134C19.935 34.0402 19.5935 33.6534 19.1338 33.516L19.048 33.8035ZM16.5833 32.7863C17.3689 33.2064 18.1945 33.5471 19.0478 33.8034L19.1341 33.5161C18.2999 33.2655 17.4928 32.9324 16.7247 32.5217L16.5833 32.7863ZM15.5736 32.8503C15.8704 32.6385 16.2618 32.6136 16.583 32.7861L16.725 32.5218C16.3031 32.2953 15.7891 32.3279 15.3993 32.6061L15.5736 32.8503ZM12.173 35.2783L15.5736 32.8503L15.3993 32.6061L11.9987 35.0342L12.173 35.2783ZM8.61343 31.8904L11.9797 35.2622L12.192 35.0503L8.82574 31.6785L8.61343 31.8904ZM11.0256 28.2967L8.59751 31.6973L8.84166 31.8716L11.2697 28.471L11.0256 28.2967ZM11.0897 27.2873C11.2622 27.6085 11.2374 27.9999 11.0255 28.2967L11.2697 28.471C11.5479 28.0812 11.5806 27.5672 11.354 27.1454L11.0897 27.2873ZM10.0562 24.7739C10.3243 25.6404 10.6699 26.481 11.0888 27.2856L11.3549 27.1471C10.9443 26.3585 10.6056 25.5345 10.3428 24.6852L10.0562 24.7739ZM9.31407 24.1575C9.65664 24.2147 9.94138 24.4529 10.0582 24.78L10.3407 24.6791C10.1873 24.2496 9.81337 23.9367 9.36349 23.8616L9.31407 24.1575ZM5.1902 23.4707L9.31414 24.1575L9.36342 23.8616L5.23948 23.1748L5.1902 23.4707ZM5.06484 18.5531V23.3228H5.36484V18.5531H5.06484ZM9.31303 17.7183L5.1902 18.4051L5.23949 18.701L9.36232 18.0143L9.31303 17.7183ZM10.0571 17.0958C9.94028 17.4229 9.65553 17.6611 9.31296 17.7183L9.36239 18.0142C9.81227 17.9391 10.1862 17.6263 10.3396 17.1967L10.0571 17.0958ZM11.1135 14.5431C10.697 15.3674 10.3434 16.222 10.0558 17.0996L10.3409 17.193C10.6238 16.3298 10.9715 15.4892 11.3812 14.6784L11.1135 14.5431ZM11.0256 13.5792C11.2278 13.8621 11.2608 14.2323 11.1118 14.5465L11.3829 14.6751C11.5785 14.2625 11.5352 13.7763 11.2697 13.4048L11.0256 13.5792ZM8.59751 10.1786L11.0256 13.5792L11.2697 13.4049L8.84166 10.0042L8.59751 10.1786ZM11.9853 6.61352L8.61352 9.98533L8.82565 10.1975L12.1975 6.82565L11.9853 6.61352ZM15.5792 9.02557L12.1786 6.59751L12.0042 6.84166L15.4049 9.26972L15.5792 9.02557ZM16.5886 9.08971C16.2673 9.26223 15.876 9.23736 15.5791 9.02555L15.4049 9.26974C15.7947 9.5479 16.3086 9.58057 16.7305 9.35401L16.5886 9.08971ZM19.0533 8.07242C18.2 8.32873 17.3744 8.66947 16.5888 9.08958L16.7303 9.35414C17.4983 8.94342 18.3054 8.61031 19.1396 8.35973L19.0533 8.07242ZM19.7239 7.3129C19.6636 7.67319 19.4035 7.96778 19.0535 8.07235L19.1394 8.3598C19.599 8.22246 19.9405 7.8356 20.0198 7.36245L19.7239 7.3129ZM20.4051 3.19039L19.7238 7.31322L20.0198 7.36213L20.7011 3.2393L20.4051 3.19039ZM25.3228 3.06484H20.5531V3.36484H25.3228V3.06484ZM26.1575 7.31303L25.4707 3.1902L25.1748 3.23949L25.8616 7.36232L26.1575 7.31303ZM26.8279 8.07235C26.4779 7.96778 26.2178 7.67319 26.1575 7.3129L25.8616 7.36245C25.9408 7.8356 26.2823 8.22246 26.742 8.3598L26.8279 8.07235ZM29.2926 9.08958C28.5069 8.66947 27.6814 8.32873 26.8281 8.07242L26.7418 8.35973C27.5759 8.61031 28.3831 8.94342 29.1511 9.35414L29.2926 9.08958ZM30.3022 9.02555C30.0054 9.23736 29.6141 9.26223 29.2928 9.08971L29.1509 9.35401C29.5728 9.58057 30.0867 9.5479 30.4765 9.26974L30.3022 9.02555ZM33.7028 6.59751L30.3022 9.02557L30.4765 9.26972L33.8771 6.84166L33.7028 6.59751ZM37.2679 9.98533L33.896 6.61352L33.6839 6.82565L37.0557 10.1975L37.2679 9.98533ZM34.8558 13.5792L37.2839 10.1786L37.0397 10.0042L34.6117 13.4049L34.8558 13.5792ZM34.7917 14.5886C34.6191 14.2673 34.644 13.876 34.8558 13.5791L34.6116 13.4049C34.3335 13.7947 34.3008 14.3086 34.5274 14.7305L34.7917 14.5886ZM35.809 17.0533C35.5527 16.2 35.2119 15.3744 34.7918 14.5888L34.5272 14.7303C34.938 15.4983 35.2711 16.3054 35.5216 17.1396L35.809 17.0533ZM36.5685 17.7239C36.2082 17.6636 35.9136 17.4035 35.809 17.0535L35.5216 17.1394C35.6589 17.599 36.0458 17.9405 36.5189 18.0198L36.5685 17.7239ZM40.6912 18.4106L36.5684 17.7239L36.5191 18.0198L40.6419 18.7066L40.6912 18.4106ZM40.8165 23.3283V18.5586H40.5165V23.3283H40.8165ZM36.5684 24.1631L40.6912 23.4763L40.6419 23.1804L36.5191 23.8671L36.5684 24.1631ZM35.809 24.8334C35.9136 24.4834 36.2082 24.2234 36.5685 24.163L36.5189 23.8672C36.0458 23.9464 35.6589 24.2879 35.5216 24.7475L35.809 24.8334ZM34.7918 27.2981C35.2119 26.5125 35.5527 25.6869 35.809 24.8336L35.5216 24.7473C35.2711 25.5815 34.938 26.3886 34.5272 27.1567L34.7918 27.2981ZM34.8558 28.3078C34.644 28.011 34.6191 27.6196 34.7917 27.2984L34.5274 27.1564C34.3008 27.5783 34.3335 28.0922 34.6116 28.482L34.8558 28.3078ZM37.2839 31.7084L34.8558 28.3077L34.6117 28.4821L37.0397 31.8827L37.2839 31.7084ZM33.896 35.2734L37.2679 31.9016L37.0557 31.6895L33.6839 35.0613L33.896 35.2734ZM30.3022 32.8614L33.7028 35.2894L33.8771 35.0453L30.4765 32.6172L30.3022 32.8614ZM29.2865 32.7865C29.6108 32.6148 30.0047 32.6434 30.3007 32.8603L30.478 32.6183C30.0893 32.3335 29.572 32.2959 29.1461 32.5214L29.2865 32.7865ZM49.6725 65.1891V61.9225H49.3725V65.1891H49.6725ZM67.0393 47.5135C66.4749 56.9491 58.9491 64.4749 49.5135 65.0393L49.5314 65.3388C59.1186 64.7653 66.7653 57.1186 67.3388 47.5314L67.0393 47.5135ZM63.9225 47.6725H67.1891V47.3725H63.9225V47.6725ZM63.7725 45.3071V47.5225H64.0725V45.3071H63.7725ZM67.1891 45.1571H63.9225V45.4571H67.1891V45.1571ZM49.5135 27.7902C58.9491 28.3546 66.4749 35.8805 67.0393 45.3161L67.3388 45.2981C66.7653 35.711 59.1186 28.0642 49.5314 27.4908L49.5135 27.7902ZM49.6725 30.9071V27.6405H49.3725V30.9071H49.6725ZM47.3071 31.0571H49.5225V30.7571H47.3071V31.0571ZM47.1571 27.625V30.9071H47.4571V27.625H47.1571ZM38.863 30.381C41.4267 28.8379 44.328 27.9433 47.3155 27.7748L47.2986 27.4752C44.2624 27.6466 41.3138 28.5557 38.7083 30.1239L38.863 30.381ZM39.6266 31.1722L38.9077 30.1653L38.6635 30.3396L39.3824 31.3465L39.6266 31.1722ZM39.492 32.7921C39.9267 32.3576 39.9836 31.6725 39.6266 31.1722L39.3824 31.3465C39.6542 31.7274 39.6109 32.2491 39.2799 32.58L39.492 32.7921ZM34.7921 37.4921L39.4921 32.7921L39.2799 32.58L34.58 37.2799L34.7921 37.4921ZM33.1722 37.6266C33.6725 37.9836 34.3576 37.9267 34.7921 37.492L34.58 37.2799C34.2491 37.6109 33.7274 37.6542 33.3465 37.3824L33.1722 37.6266ZM32.1653 36.9077L33.1722 37.6266L33.3465 37.3824L32.3396 36.6635L32.1653 36.9077ZM29.7748 45.3155C29.9433 42.328 30.8379 39.4267 32.381 36.863L32.1239 36.7083C30.5557 39.3138 29.6466 42.2624 29.4752 45.2986L29.7748 45.3155ZM32.9071 45.1571H29.625V45.4571H32.9071V45.1571ZM33.0571 47.5225V45.3071H32.7571V47.5225H33.0571ZM29.6405 47.6725H32.9071V47.3725H29.6405V47.6725ZM47.3161 65.0393C37.8805 64.4749 30.3546 56.9491 29.7902 47.5135L29.4908 47.5314C30.0642 57.1186 37.711 64.7653 47.2981 65.3388L47.3161 65.0393ZM47.1571 61.9225V65.1891H47.4571V61.9225H47.1571ZM49.5225 61.7725H47.3071V62.0725H49.5225V61.7725Z" fill="#333333"/>
<path d="M49.5225 33.1226H47.3071V46.4149C47.3071 47.0266 47.8031 47.5226 48.4148 47.5226H57.2764V45.3072H49.5225V33.1226Z" fill="#333333" stroke="#333333" stroke-width="0.1"/>
<path fill-rule="evenodd" clip-rule="evenodd" d="M23.2146 14.8265C23.1414 13.797 21.746 13.5397 21.3105 14.4755L17.3994 22.8799H22.9379V26.3574C22.9379 27.4399 24.4181 27.7506 24.8534 26.7596L28.3833 18.7237H23.4917L23.2146 14.8265Z" fill="#FFB900"/>
<path fill-rule="evenodd" clip-rule="evenodd" d="M24.0455 17.6156H28.4763C28.8529 17.6157 29.2037 17.8071 29.4075 18.1238C29.6113 18.4405 29.6402 18.8391 29.4843 19.1819L23.9458 31.3665C23.7661 31.7617 23.372 32.0155 22.9378 32.0156C22.8589 32.0156 22.7802 32.0075 22.703 31.9912C22.1933 31.8806 21.8298 31.4295 21.8301 30.9079V24.2617H17.3994C17.0228 24.2616 16.672 24.0702 16.4682 23.7535C16.2644 23.4368 16.2355 23.0383 16.3914 22.6955L21.9298 10.5108C22.1459 10.0367 22.6632 9.77717 23.1725 9.88755C23.6818 9.99794 24.0452 10.4483 24.0455 10.9694V17.6156ZM24.0453 23.154V25.7937L26.7559 19.831H22.9376C22.3259 19.831 21.8299 19.335 21.8299 18.7233V16.0836L19.1194 22.0464H22.9376C23.5494 22.0464 24.0453 22.5423 24.0453 23.154Z" fill="#333333"/>
<rect x="21.8306" y="5.43115" width="2.21539" height="2.21538" fill="#333333"/>
<path d="M11.1899 10.7559L12.7565 9.18935L14.323 10.7559L12.7565 12.3224L11.1899 10.7559Z" fill="#333333"/>
<rect x="7.43115" y="19.8306" width="2.21538" height="2.21539" fill="#333333"/>
<path d="M11.1899 31.1201L12.7565 29.5536L14.323 31.1201L12.7565 32.6866L11.1899 31.1201Z" fill="#333333"/>
<rect x="21.8306" y="34.2314" width="2.21539" height="2.21539" fill="#333333"/>
<path d="M31.5542 31.1201L33.1207 29.5536L34.6872 31.1201L33.1207 32.6866L31.5542 31.1201Z" fill="#333333"/>
<rect x="36.2314" y="19.8306" width="2.21539" height="2.21539" fill="#333333"/>
<path d="M31.5543 10.7571L33.1208 9.19057L34.6873 10.7571L33.1208 12.3236L31.5543 10.7571Z" fill="#333333"/>
<ellipse cx="59.4922" cy="10.9693" rx="3.32308" ry="3.32308" fill="#FBB03B"/>
<ellipse cx="12.9691" cy="56.3851" rx="3.32308" ry="3.32308" fill="#FBB03B"/>
<path fill-rule="evenodd" clip-rule="evenodd" d="M55.0617 10.9693C55.0617 8.5223 57.0454 6.53857 59.4924 6.53857C60.6676 6.53857 61.7945 7.00539 62.6255 7.83632C63.4564 8.66725 63.9232 9.79423 63.9232 10.9693C63.9232 13.4164 61.9395 15.4001 59.4924 15.4001C57.0454 15.4001 55.0617 13.4164 55.0617 10.9693ZM57.2765 10.9688C57.2765 12.1923 58.2684 13.1842 59.4919 13.1842C60.7154 13.1842 61.7073 12.1923 61.7073 10.9688C61.7073 9.74528 60.7154 8.75342 59.4919 8.75342C58.2684 8.75342 57.2765 9.74528 57.2765 10.9688Z" fill="#333333"/>
<path fill-rule="evenodd" clip-rule="evenodd" d="M67.8821 7.4944L68.6232 7.67938C69.116 7.80285 69.4617 8.24577 69.4617 8.75385V13.1846C69.4617 13.6927 69.116 14.1356 68.6232 14.2591L67.8821 14.4441L68.2753 15.0987C68.5369 15.5348 68.4679 16.093 68.1081 16.4523L64.9755 19.5849C64.6162 19.9447 64.058 20.0137 63.6219 19.7521L62.9673 19.3589L62.7823 20.0999C62.6588 20.5928 62.2159 20.9384 61.7078 20.9385H57.2771C56.769 20.9384 56.3261 20.5928 56.2026 20.0999L56.0176 19.3589L55.363 19.7521C54.9269 20.0137 54.3687 19.9447 54.0094 19.5849L50.8768 16.4523C50.517 16.093 50.448 15.5348 50.7096 15.0987L51.1028 14.4441L50.3617 14.2591C49.8689 14.1356 49.5232 13.6927 49.5232 13.1846V8.75385C49.5232 8.24577 49.8689 7.80285 50.3617 7.67938L51.1028 7.4944L50.7096 6.83975C50.448 6.40365 50.517 5.84547 50.8768 5.48615L54.0094 2.3536C54.3687 1.99374 54.9269 1.92477 55.363 2.18634L56.0176 2.57957L56.2026 1.83852C56.3261 1.34568 56.769 1.00001 57.2771 1H61.7078C62.2159 1.00001 62.6588 1.34568 62.7823 1.83852L62.9673 2.57957L63.6219 2.18634C64.058 1.92477 64.6162 1.99374 64.9755 2.3536L68.1081 5.48615C68.4679 5.84547 68.5369 6.40365 68.2753 6.83975L67.8821 7.4944ZM65.8933 12.6516L67.2458 12.3193L67.2347 9.61873L65.8822 9.28643C65.5418 9.20109 65.262 8.95952 65.1279 8.63523C64.9938 8.31094 65.0213 7.9423 65.2021 7.6415L65.9187 6.4463L64.0091 4.53664L62.8139 5.25332C62.5129 5.43403 62.1441 5.4614 61.8198 5.32708C61.4955 5.19277 61.254 4.91267 61.169 4.57209L60.8367 3.2207H58.1361L57.8038 4.57209C57.7187 4.91267 57.4773 5.19277 57.1529 5.32708C56.8286 5.4614 56.4598 5.43403 56.1589 5.25332L54.9637 4.53664L53.054 6.4463L53.7707 7.6415C53.9514 7.9423 53.9789 8.31094 53.8448 8.63523C53.7108 8.95952 53.4309 9.20109 53.0906 9.28643L51.7381 9.61873V12.3193L53.0961 12.6571C53.4365 12.7425 53.7163 12.984 53.8504 13.3083C53.9845 13.6326 53.9569 14.0013 53.7762 14.3021L53.0595 15.4973L54.9692 17.4069L56.1644 16.6902C56.4652 16.5095 56.8338 16.482 57.1581 16.6161C57.4824 16.7502 57.724 17.03 57.8093 17.3704L58.1416 18.7229H60.8422L61.18 17.3648C61.2654 17.0244 61.5069 16.7446 61.8312 16.6105C62.1555 16.4765 62.5242 16.504 62.825 16.6847L64.0202 17.4014L65.9298 15.4917L65.2131 14.2965C65.0324 13.9957 65.0049 13.6271 65.139 13.3028C65.2731 12.9785 65.5529 12.7369 65.8933 12.6516Z" fill="#333333"/>
<path fill-rule="evenodd" clip-rule="evenodd" d="M8.53857 57.4928C8.53857 55.0457 10.5223 53.062 12.9693 53.062C15.4164 53.062 17.4001 55.0457 17.4001 57.4928C17.4001 59.9398 15.4164 61.9235 12.9693 61.9235C10.5223 61.9235 8.53857 59.9398 8.53857 57.4928ZM10.7534 57.4922C10.7534 58.7158 11.7453 59.7076 12.9688 59.7076C14.1923 59.7076 15.1842 58.7158 15.1842 57.4922C15.1842 56.2687 14.1923 55.2769 12.9688 55.2769C11.7453 55.2769 10.7534 56.2687 10.7534 57.4922Z" fill="#333333"/>
<path fill-rule="evenodd" clip-rule="evenodd" d="M21.3589 60.9673L21.7521 61.6219C22.0137 62.058 21.9447 62.6162 21.5849 62.9755L18.4523 66.1081C18.093 66.4679 17.5348 66.5369 17.0987 66.2753L16.4441 65.8821L16.2591 66.6231C16.1356 67.116 15.6927 67.4616 15.1846 67.4617H10.7538C10.2458 67.4616 9.80285 67.116 9.67938 66.6231L9.4944 65.8821L8.83975 66.2753C8.40365 66.5369 7.84547 66.4679 7.48615 66.1081L4.3536 62.9755C3.99374 62.6162 3.92477 62.058 4.18634 61.6219L4.57957 60.9673L3.83852 60.7823C3.34568 60.6588 3.00001 60.2159 3 59.7078V55.277C3.00001 54.769 3.34568 54.326 3.83852 54.2026L4.57957 54.0176L4.18634 53.3629C3.92477 52.9268 3.99374 52.3687 4.3536 52.0093L7.48615 48.8768C7.84547 48.5169 8.40365 48.448 8.83975 48.7095L9.4944 49.1028L9.67938 48.3617C9.80285 47.8689 10.2458 47.5232 10.7538 47.5232H15.1846C15.6927 47.5232 16.1356 47.8689 16.2591 48.3617L16.4441 49.1028L17.0987 48.7095C17.5348 48.448 18.093 48.5169 18.4523 48.8768L21.5849 52.0093C21.9447 52.3687 22.0137 52.9268 21.7521 53.3629L21.3589 54.0176L22.0999 54.2026C22.5928 54.326 22.9384 54.769 22.9385 55.277V59.7078C22.9384 60.2159 22.5928 60.6588 22.0999 60.7823L21.3589 60.9673ZM19.37 59.1748L20.7225 58.8425L20.7115 56.1419L19.359 55.8096C19.0186 55.7243 18.7388 55.4827 18.6047 55.1584C18.4706 54.8341 18.4981 54.4655 18.6788 54.1647L19.3955 52.9695L17.4859 51.0598L16.2907 51.7765C15.9897 51.9572 15.6209 51.9846 15.2966 51.8503C14.9723 51.716 14.7308 51.4359 14.6457 51.0953L14.3134 49.7439H11.6129L11.2806 51.0953C11.1955 51.4359 10.954 51.716 10.6297 51.8503C10.3054 51.9846 9.93659 51.9572 9.63564 51.7765L8.44044 51.0598L6.53078 52.9695L7.24746 54.1647C7.42819 54.4655 7.4557 54.8341 7.32161 55.1584C7.18753 55.4827 6.90772 55.7243 6.56734 55.8096L5.21484 56.1419V58.8425L6.56734 59.1803C6.90772 59.2657 7.18753 59.5072 7.32161 59.8315C7.4557 60.1558 7.42819 60.5245 7.24746 60.8252L6.53078 62.0204L8.44598 63.9301L9.64118 63.2134C9.94198 63.0327 10.3106 63.0052 10.6349 63.1393C10.9592 63.2734 11.2008 63.5532 11.2861 63.8936L11.6184 65.246H14.319L14.6568 63.888C14.7421 63.5476 14.9837 63.2678 15.308 63.1337C15.6323 62.9997 16.0009 63.0272 16.3017 63.2079L17.4969 63.9246L19.4066 62.0149L18.6899 60.8197C18.5092 60.5189 18.4817 60.1503 18.6158 59.826C18.7498 59.5017 19.0297 59.2601 19.37 59.1748Z" fill="#333333"/>
</svg>
