<svg width="72" height="73" viewBox="0 0 72 73" fill="none" xmlns="http://www.w3.org/2000/svg">
<ellipse cx="36" cy="67.5459" rx="30" ry="5.45454" fill="#333333"/>
<path fill-rule="evenodd" clip-rule="evenodd" d="M29.4134 31.2463C31.2289 33.1859 33.6146 34.1557 35.9998 34.1557C38.385 34.1557 40.7702 33.1859 42.5862 31.2463C46.2181 27.3676 46.2181 21.0559 42.5862 17.1767C40.8267 15.298 38.488 14.2627 35.9998 14.2627C33.5116 14.2627 31.1724 15.2975 29.4134 17.1767C25.7815 21.0559 25.7815 27.3676 29.4134 31.2463ZM32.0187 19.9586C33.1164 18.7862 34.5582 18.2002 35.9999 18.2002C37.4417 18.2002 38.8834 18.7862 39.9812 19.9586C42.1766 22.3036 42.1766 26.1188 39.9812 28.4638C38.9179 29.5994 37.504 30.2248 35.9999 30.2248C34.4959 30.2248 33.0819 29.5994 32.0187 28.4638C29.8232 26.1188 29.8232 22.3036 32.0187 19.9586Z" fill="#333333"/>
<path fill-rule="evenodd" clip-rule="evenodd" d="M36.0001 18.2002C34.5583 18.2002 33.1165 18.7862 32.0188 19.9586C29.8233 22.3036 29.8233 26.1188 32.0188 28.4638C33.082 29.5994 34.496 30.2248 36.0001 30.2248C37.5041 30.2248 38.9181 29.5994 39.9813 28.4638C42.1768 26.1188 42.1768 22.3036 39.9813 19.9586C38.8836 18.7862 37.4418 18.2002 36.0001 18.2002Z" fill="#FFB900"/>
<path fill-rule="evenodd" clip-rule="evenodd" d="M23.697 45.8608C23.5712 44.9787 25.6227 44.0768 26.3804 44.5458C28.015 45.5576 30.2436 46.0724 33.0813 44.8654C37.4759 42.9961 36.0606 38.7375 39.6758 36.0143C44.7688 32.1778 54.0581 34.3361 54.0581 34.3361L37.3971 64.7547L32.5447 61.0205C27.7301 57.3155 24.5549 51.875 23.697 45.8608Z" fill="#4EA824"/>
<path fill-rule="evenodd" clip-rule="evenodd" d="M34.6044 66.8344L36.022 68.6364L37.4143 66.8112C38.2435 65.7239 57.7246 40.0022 57.7246 24.5101C57.7246 11.5465 47.9793 1 36.0005 1C24.0217 1 14.2764 11.5465 14.2764 24.5101C14.2764 40.8035 33.7747 65.7791 34.6044 66.8344ZM17.9414 24.5106C17.9414 13.735 26.0422 4.96826 35.9992 4.96826C45.9563 4.96826 54.0571 13.735 54.0571 24.5106C54.0571 30.239 50.7255 38.8922 44.4219 49.5332C41.1251 55.099 37.7945 59.8769 35.9792 62.392C34.1668 59.944 30.8676 55.3183 27.5914 49.8562C21.2782 39.3308 17.9414 30.5667 17.9414 24.5106Z" fill="#333333"/>
<path d="M36.022 68.6364L35.9434 68.6982L36.0232 68.7996L36.1015 68.697L36.022 68.6364ZM34.6044 66.8344L34.5257 66.8962L34.5258 66.8962L34.6044 66.8344ZM37.4143 66.8112L37.4938 66.8718L37.4938 66.8718L37.4143 66.8112ZM44.4219 49.5332L44.3358 49.4822L44.3358 49.4822L44.4219 49.5332ZM35.9792 62.392L35.8988 62.4515L35.9802 62.5614L36.0603 62.4505L35.9792 62.392ZM27.5914 49.8562L27.5056 49.9076L27.5914 49.8562ZM36.1006 68.5745L34.683 66.7726L34.5258 66.8962L35.9434 68.6982L36.1006 68.5745ZM37.3348 66.7505L35.9425 68.5757L36.1015 68.697L37.4938 66.8718L37.3348 66.7505ZM57.6246 24.5101C57.6246 28.3645 56.4123 32.8631 54.5749 37.4654C52.7381 42.0661 50.2796 46.763 47.7941 51.0119C42.8231 59.5098 37.7483 66.2083 37.3348 66.7505L37.4938 66.8718C37.9095 66.3268 42.9898 59.6208 47.9667 51.1129C50.4552 46.859 52.9188 42.1527 54.7606 37.5395C56.6018 32.9278 57.8246 28.4017 57.8246 24.5101H57.6246ZM36.0005 1.1C47.9168 1.1 57.6246 11.5942 57.6246 24.5101H57.8246C57.8246 11.4989 48.0418 0.9 36.0005 0.9V1.1ZM14.3764 24.5101C14.3764 11.5942 24.0842 1.1 36.0005 1.1V0.9C23.9592 0.9 14.1764 11.4989 14.1764 24.5101H14.3764ZM34.683 66.7726C34.2694 66.2465 29.1904 59.7427 24.2153 51.3356C21.7278 47.1321 19.2673 42.4546 17.4289 37.8118C15.5901 33.1679 14.3764 28.5654 14.3764 24.5101H14.1764C14.1764 28.6015 15.3999 33.2309 17.243 37.8855C19.0865 42.5412 21.5524 47.2285 24.0432 51.4375C29.0247 59.8554 34.1097 66.367 34.5257 66.8962L34.683 66.7726ZM35.9992 4.86826C25.9797 4.86826 17.8414 13.6874 17.8414 24.5106H18.0414C18.0414 13.7826 26.1047 5.06826 35.9992 5.06826V4.86826ZM54.1571 24.5106C54.1571 13.6874 46.0188 4.86826 35.9992 4.86826V5.06826C45.8938 5.06826 53.9571 13.7826 53.9571 24.5106H54.1571ZM44.5079 49.5841C47.6616 44.2604 50.0732 39.4318 51.6966 35.2156C53.3196 31.0007 54.1571 27.3922 54.1571 24.5106H53.9571C53.9571 27.3574 53.1288 30.9397 51.51 35.1438C49.8917 39.3466 47.4857 44.165 44.3358 49.4822L44.5079 49.5841ZM36.0603 62.4505C37.8766 59.934 41.2091 55.1535 44.5079 49.5841L44.3358 49.4822C41.0411 55.0446 37.7124 59.8198 35.8981 62.3335L36.0603 62.4505ZM27.5056 49.9076C30.7841 55.3735 34.0853 60.0019 35.8988 62.4515L36.0596 62.3325C34.2483 59.886 30.9512 55.2632 27.6771 49.8048L27.5056 49.9076ZM17.8414 24.5106C17.8414 30.5956 21.1909 39.3797 27.5056 49.9076L27.6771 49.8048C21.3655 39.282 18.0414 30.5378 18.0414 24.5106H17.8414Z" fill="#333333"/>
</svg>
