<svg width="72" height="72" viewBox="0 0 72 72" fill="none" xmlns="http://www.w3.org/2000/svg">
<path d="M53.0526 51.1579C47.7474 46.6105 40.7368 46.1052 37.8947 46.421L30.3158 54.9474V60.6316L68.2105 59.6842V55.8948C65.3684 56.2105 58.3579 55.7052 53.0526 51.1579Z" fill="#4EA824"/>
<path d="M67.5 63C67.5 63 72 63 72 58.5C72 54 67.5 40.5 49.5 40.5C31.5 40.5 27 54 27 58.5C27 63 31.5 63 31.5 63H67.5ZM31.599 58.5C31.5658 58.4954 31.5327 58.4894 31.5 58.482C31.5045 57.294 32.2515 53.847 34.92 50.742C37.404 47.8305 41.769 45 49.5 45C57.2265 45 61.5915 47.835 64.08 50.742C66.7485 53.847 67.491 57.2985 67.5 58.482L67.464 58.491C67.4431 58.4945 67.4221 58.4975 67.401 58.5H31.599ZM49.5 31.5C51.8869 31.5 54.1761 30.5518 55.864 28.864C57.5518 27.1761 58.5 24.8869 58.5 22.5C58.5 20.1131 57.5518 17.8239 55.864 16.136C54.1761 14.4482 51.8869 13.5 49.5 13.5C47.1131 13.5 44.8239 14.4482 43.136 16.136C41.4482 17.8239 40.5 20.1131 40.5 22.5C40.5 24.8869 41.4482 27.1761 43.136 28.864C44.8239 30.5518 47.1131 31.5 49.5 31.5ZM63 22.5C63 24.2728 62.6508 26.0283 61.9724 27.6662C61.2939 29.3041 60.2995 30.7923 59.0459 32.0459C57.7924 33.2995 56.3041 34.2939 54.6662 34.9724C53.0283 35.6508 51.2728 36 49.5 36C47.7272 36 45.9717 35.6508 44.3338 34.9724C42.6959 34.2939 41.2076 33.2995 39.9541 32.0459C38.7005 30.7923 37.7061 29.3041 37.0276 27.6662C36.3492 26.0283 36 24.2728 36 22.5C36 18.9196 37.4223 15.4858 39.9541 12.9541C42.4858 10.4223 45.9196 9 49.5 9C53.0804 9 56.5142 10.4223 59.0459 12.9541C61.5777 15.4858 63 18.9196 63 22.5ZM31.212 41.76C29.4119 41.1932 27.5564 40.8206 25.677 40.6485C24.621 40.5481 23.5608 40.4985 22.5 40.5C4.5 40.5 0 54 0 58.5C0 61.5015 1.4985 63 4.5 63H23.472C22.8049 61.5952 22.4722 60.0549 22.5 58.5C22.5 53.955 24.1965 49.311 27.405 45.432C28.4985 44.109 29.772 42.8715 31.212 41.76ZM22.14 45C19.4767 49.0017 18.038 53.6932 18 58.5H4.5C4.5 57.33 5.238 53.865 7.92 50.742C10.3725 47.88 14.634 45.09 22.14 45.0045V45ZM6.75 24.75C6.75 21.1696 8.17232 17.7358 10.7041 15.2041C13.2358 12.6723 16.6696 11.25 20.25 11.25C23.8304 11.25 27.2642 12.6723 29.7959 15.2041C32.3277 17.7358 33.75 21.1696 33.75 24.75C33.75 28.3304 32.3277 31.7642 29.7959 34.2959C27.2642 36.8277 23.8304 38.25 20.25 38.25C16.6696 38.25 13.2358 36.8277 10.7041 34.2959C8.17232 31.7642 6.75 28.3304 6.75 24.75ZM20.25 15.75C17.8631 15.75 15.5739 16.6982 13.886 18.386C12.1982 20.0739 11.25 22.3631 11.25 24.75C11.25 27.1369 12.1982 29.4261 13.886 31.114C15.5739 32.8018 17.8631 33.75 20.25 33.75C22.6369 33.75 24.9261 32.8018 26.614 31.114C28.3018 29.4261 29.25 27.1369 29.25 24.75C29.25 22.3631 28.3018 20.0739 26.614 18.386C24.9261 16.6982 22.6369 15.75 20.25 15.75Z" fill="#333333"/>
<circle cx="20.8421" cy="24.6316" r="9.47368" fill="#FFB900"/>
</svg>
