<svg width="48" height="48" viewBox="0 0 48 48" fill="none" xmlns="http://www.w3.org/2000/svg">
<circle cx="24" cy="24" r="24" fill="#D8FFE8"/>
<path d="M14.8054 15H34.6804C36.5554 15 37.5004 15.885 37.5004 17.685V30.315C37.5004 32.1 36.5554 33 34.6804 33H14.8054C12.9304 33 11.9854 32.1 11.9854 30.315V17.685C11.9854 15.885 12.9304 15 14.8054 15ZM24.7354 27.9L34.8454 19.605C35.2054 19.305 35.4904 18.615 35.0404 18C34.6054 17.385 33.8104 17.37 33.2854 17.745L24.7354 23.535L16.2004 17.745C15.6754 17.37 14.8804 17.385 14.4454 18C13.9954 18.615 14.2804 19.305 14.6404 19.605L24.7354 27.9Z" fill="#4EA824"/>
</svg>
