<svg width="48" height="48" viewBox="0 0 48 48" fill="none" xmlns="http://www.w3.org/2000/svg">
<circle cx="24" cy="24" r="24" fill="#D8FFE8"/>
<path d="M34.0008 22.7489H36.5008C36.5008 16.3364 31.6595 11.5001 25.2383 11.5001V14.0001C30.3158 14.0001 34.0008 17.6789 34.0008 22.7489Z" fill="#4EA824"/>
<path d="M25.2504 19.0002C27.8791 19.0002 29.0004 20.1214 29.0004 22.7502H31.5004C31.5004 18.7189 29.2816 16.5002 25.2504 16.5002V19.0002ZM29.5279 25.8039C29.2877 25.5856 28.972 25.4692 28.6476 25.4792C28.3232 25.4892 28.0154 25.6249 27.7891 25.8577L24.7979 28.9339C24.0779 28.7964 22.6304 28.3452 21.1404 26.8589C19.6504 25.3677 19.1991 23.9164 19.0654 23.2014L22.1391 20.2089C22.3721 19.9828 22.508 19.675 22.5181 19.3504C22.5281 19.0259 22.4115 18.7102 22.1929 18.4702L17.5741 13.3914C17.3554 13.1506 17.0515 13.0046 16.7268 12.9843C16.4021 12.9639 16.0824 13.071 15.8354 13.2827L13.1229 15.6089C12.9067 15.8258 12.7778 16.1145 12.7604 16.4202C12.7416 16.7327 12.3841 24.1352 18.1241 29.8777C23.1316 34.8839 29.4041 35.2502 31.1316 35.2502C31.3841 35.2502 31.5391 35.2427 31.5804 35.2402C31.886 35.2231 32.1745 35.0935 32.3904 34.8764L34.7154 32.1627C34.9272 31.9158 35.0345 31.5961 35.0144 31.2715C34.9943 30.9468 34.8485 30.6428 34.6079 30.4239L29.5279 25.8039Z" fill="#4EA824"/>
</svg>
