<svg width="820" height="336" viewBox="0 0 820 336" fill="none" xmlns="http://www.w3.org/2000/svg">
<rect x="-13" width="833" height="336" rx="13" fill="#327314"/>
<mask id="mask0_202_5472" style="mask-type:alpha" maskUnits="userSpaceOnUse" x="-13" y="0" width="833" height="336">
<rect x="-13" width="833" height="336" rx="13" fill="#327314"/>
</mask>
<g mask="url(#mask0_202_5472)">
<g opacity="0.39">
<path d="M-2.7381 0.728835V0.807932V0.887028C-2.7381 13.7797 7.72276 24.2995 20.7196 24.2995H20.8781V0.887028V0.807932V-22.6836H20.7196C7.72276 -22.6836 -2.7381 -12.1638 -2.7381 0.728835Z" fill="#24510F"/>
<path d="M69.2992 25.644C69.2992 38.5367 58.7591 49.0565 45.8415 49.0565C45.8415 36.0847 56.3023 25.644 69.2992 25.644Z" fill="#24510F"/>
<path d="M22.1461 25.644C22.1461 38.5367 32.6862 49.0565 45.6037 49.0565C45.6037 36.0847 35.1429 25.644 22.1461 25.644Z" fill="#24510F"/>
<path d="M22.1461 72.39C22.1461 59.4973 32.6862 48.9775 45.6037 48.9775C45.6037 61.8702 35.1429 72.39 22.1461 72.39Z" fill="#24510F"/>
<path d="M69.2992 72.39C69.2992 59.4973 58.7591 48.9775 45.8415 48.9775C45.8415 61.8702 56.3023 72.39 69.2992 72.39Z" fill="#24510F"/>
<path d="M93.5931 49.2667V25.7751L70.0562 25.7751V49.2667H93.5931Z" fill="#24510F"/>
<path d="M117.244 72.8062V49.3147L93.7072 49.3147V72.8062H117.244Z" fill="#24510F"/>
<path d="M-19.8559 25.0906L-3.13438 41.7007L13.5079 25.0906H-19.8559Z" fill="#24510F"/>
<path d="M-19.8559 41.2261L-3.13438 57.9153L13.5079 41.2261H-19.8559Z" fill="#24510F"/>
<path d="M-19.8559 58.3899L-3.21363 75.0001L13.5079 58.3899H-19.8559Z" fill="#24510F"/>
<path d="M45.683 24.2995C58.6383 24.2995 69.1406 13.8174 69.1406 0.887037C69.1406 -12.0433 58.6383 -22.5254 45.683 -22.5254C32.7276 -22.5254 22.2253 -12.0433 22.2253 0.887037C22.2253 13.8174 32.7276 24.2995 45.683 24.2995Z" fill="#24510F"/>
<path d="M71.2012 23.7457C71.2012 10.853 81.7413 0.333252 94.6589 0.333252C94.6589 13.2259 84.1187 23.7457 71.2012 23.7457Z" fill="#24510F"/>
<path d="M118.275 23.7457C118.275 10.853 107.735 0.333252 94.8173 0.333252C94.8173 13.2259 105.357 23.7457 118.275 23.7457Z" fill="#24510F"/>
<path d="M118.275 -23C118.275 -10.1073 107.735 0.412427 94.8173 0.412427C94.8173 -12.5593 105.357 -23 118.275 -23Z" fill="#24510F"/>
<path d="M71.2012 -23C71.2012 -10.1073 81.7413 0.412427 94.6589 0.412427C94.6589 -12.5593 84.1187 -23 71.2012 -23Z" fill="#24510F"/>
</g>
<path d="M830.632 5.62208V-11.8784H830.514C820.909 -11.8784 813.072 -4.04149 813.072 5.56316V5.62208V5.68101V5.73994C813.072 15.3446 820.85 23.1815 830.514 23.1815H830.632V5.62208Z" fill="#E2A536"/>
<path d="M813.131 5.68101V5.62208V5.56316C813.131 -4.04149 805.353 -11.8784 795.69 -11.8784H795.631V5.62208V5.68101V23.1815H795.749C805.353 23.1226 813.131 15.2857 813.131 5.68101Z" fill="#E2A536"/>
<path d="M778.72 58.9486H761.219V58.8307C761.219 49.2261 769.056 41.3892 778.661 41.3892H778.72H778.779H778.837C788.442 41.3892 796.279 49.1672 796.279 58.8307V58.9486H778.72Z" fill="#E2A536"/>
<path d="M778.72 41.4481H778.661H778.602C768.997 41.4481 761.16 33.6701 761.16 24.0065V23.8887H778.661H778.72H796.22V24.0065C796.161 33.6112 788.383 41.4481 778.72 41.4481Z" fill="#F1CE35"/>
<path d="M725.688 22.2387C725.688 12.634 733.525 4.79712 743.129 4.79712C743.129 14.4018 735.351 22.1798 725.688 22.2387Z" fill="#F1CE35"/>
<path d="M760.748 22.2387C760.748 12.634 752.911 4.79712 743.306 4.79712C743.306 14.4018 751.084 22.1798 760.748 22.2387Z" fill="#F1CE35"/>
<path d="M725.688 4.7382C725.688 -4.86645 733.525 -12.7034 743.129 -12.7034C743.129 -3.09872 735.351 4.7382 725.688 4.7382Z" fill="#F1CE35"/>
<path d="M760.748 4.7382C760.748 -4.86645 752.911 -12.7034 743.306 -12.7034C743.306 -3.09872 751.084 4.7382 760.748 4.7382Z" fill="#F1CE35"/>
<path d="M725.688 58.9489C725.688 49.3442 733.525 41.5073 743.129 41.5073C743.129 51.1709 735.351 58.9489 725.688 58.9489Z" fill="#E2A536"/>
<path d="M760.748 58.9489C760.748 49.3442 752.911 41.5073 743.306 41.5073C743.306 51.1709 751.084 58.9489 760.748 58.9489Z" fill="#E2A536"/>
<path d="M725.688 41.4482C725.688 31.8435 733.525 24.0066 743.129 24.0066C743.129 33.6702 735.351 41.4482 725.688 41.4482Z" fill="#E2A536"/>
<path d="M760.748 41.4482C760.748 31.8435 752.911 24.0066 743.306 24.0066C743.306 33.6702 751.084 41.4482 760.748 41.4482Z" fill="#E2A536"/>
<path d="M795.631 -11.0535L778.896 6.21133L796.22 23.0047L795.631 -11.0535Z" fill="#F1CE35"/>
<path d="M761.573 -10.5232L762.162 23.535L778.896 6.21129L761.573 -10.5232Z" fill="#E2A536"/>
<path d="M812.98 41.7432H830.481V24.2427L812.98 24.2427V41.7432Z" fill="#E2A536"/>
<path d="M795.477 59.2927H812.977V41.7922H795.477V59.2927Z" fill="#E2A536"/>
<path d="M707.674 3.78271L725.175 3.78271V-13.7178L707.674 -13.7178V3.78271Z" fill="#E2A536"/>
<path d="M690.171 21.3323L707.672 21.3323V3.83178L690.171 3.83178V21.3323Z" fill="#F1CE35"/>
<path d="M766.287 72.5601L778.661 84.9931L791.035 72.5601H766.287Z" fill="#E2A536"/>
<path d="M766.287 84.6394L778.661 97.0135L791.035 84.6394H766.287Z" fill="#F1CE35"/>
<path d="M766.228 97.4263L778.661 109.8L791.035 97.4263H766.228Z" fill="#E2A536"/>
<path d="M730.402 60.4214L742.835 72.8544L755.209 60.4214H730.402Z" fill="#E2A536"/>
<path d="M730.402 72.501L742.835 84.8751L755.209 72.501H730.402Z" fill="#F1CE35"/>
<path d="M730.402 85.2285L742.776 97.6615L755.209 85.2285H730.402Z" fill="#E2A536"/>
<path d="M61.2513 351.598V332.344H61.1217C50.5542 332.344 41.9318 340.966 41.9318 351.533V351.598V351.663V351.728C41.9318 362.295 50.4894 370.918 61.1217 370.918H61.2513V351.598Z" fill="#F1CE35"/>
<path d="M41.9966 351.663V351.598V351.533C41.9966 340.966 33.4389 332.344 22.8067 332.344H22.7418V351.598V351.663V370.918H22.8715C33.4389 370.853 41.9966 362.23 41.9966 351.663Z" fill="#E2A536"/>
<path d="M-16.9346 331.242C-16.9346 320.674 -8.31214 312.052 2.25527 312.052C2.25527 322.684 -6.30239 331.242 -16.9346 331.242Z" fill="#E2A536"/>
<path d="M21.6397 331.242C21.6397 320.674 13.0172 312.052 2.44983 312.052C2.44983 322.684 11.0075 331.242 21.6397 331.242Z" fill="#E2A536"/>
<path d="M21.6397 292.927C21.6397 303.494 13.0172 312.117 2.44983 312.117C2.44983 301.549 11.0075 292.927 21.6397 292.927Z" fill="#E2A536"/>
<path d="M-16.9346 292.926C-16.9346 303.494 -8.31214 312.116 2.25527 312.116C2.25527 301.549 -6.30239 292.926 -16.9346 292.926Z" fill="#E2A536"/>
<path d="M61.5105 252.213C61.5105 262.78 52.888 271.403 42.3206 271.403C42.3206 260.835 50.943 252.213 61.5105 252.213Z" fill="#F1CE35"/>
<path d="M23.001 252.213C23.001 262.78 31.6235 271.403 42.1909 271.403C42.1909 260.835 33.5684 252.213 23.001 252.213Z" fill="#F1CE35"/>
<path d="M61.5105 271.468C61.5105 282.035 52.888 290.658 42.3206 290.658C42.3206 280.09 50.943 271.468 61.5105 271.468Z" fill="#F1CE35"/>
<path d="M23.001 271.468C23.001 282.035 31.6235 290.658 42.1909 290.658C42.1909 280.09 33.5684 271.468 23.001 271.468Z" fill="#F1CE35"/>
<path d="M173.927 294.612C173.927 305.179 165.305 313.801 154.737 313.801C154.737 303.234 163.36 294.612 173.927 294.612Z" fill="#F1CE35"/>
<path d="M135.418 294.612C135.418 305.179 144.04 313.802 154.608 313.802C154.608 303.235 145.985 294.612 135.418 294.612Z" fill="#E2A536"/>
<path d="M173.927 313.867C173.927 324.434 165.305 333.057 154.737 333.057C154.737 322.489 163.36 313.867 173.927 313.867Z" fill="#F1CE35"/>
<path d="M135.418 313.867C135.418 324.434 144.04 333.057 154.608 333.057C154.608 322.489 145.985 313.867 135.418 313.867Z" fill="#E2A536"/>
<path d="M213.409 330.139C213.409 340.707 204.786 349.329 194.219 349.329C194.219 338.697 202.777 330.139 213.409 330.139Z" fill="#E2A536"/>
<path d="M174.835 330.139C174.835 340.707 183.457 349.329 194.025 349.329C194.025 338.697 185.467 330.139 174.835 330.139Z" fill="#F1CE35"/>
<path d="M80.5059 328.389C91.1042 328.389 99.6958 319.797 99.6958 309.199C99.6958 298.6 91.1042 290.009 80.5059 290.009C69.9077 290.009 61.316 298.6 61.316 309.199C61.316 319.797 69.9077 328.389 80.5059 328.389Z" fill="#E2A536"/>
<path d="M56 331.695L42.3207 318.081L28.7062 331.695H56Z" fill="#E2A536"/>
<path d="M56 318.47L42.3207 304.791L28.7062 318.47H56Z" fill="#F1CE35"/>
<path d="M56 304.402L42.3855 290.787L28.7062 304.402H56Z" fill="#E2A536"/>
<path d="M93.4721 341.42L79.8576 327.805L66.1783 341.42H93.4721Z" fill="#E2A536"/>
<path d="M2.38491 370.723C12.9832 370.723 21.5748 362.132 21.5748 351.533C21.5748 340.935 12.9832 332.344 2.38491 332.344C-8.21338 332.344 -16.805 340.935 -16.805 351.533C-16.805 362.132 -8.21338 370.723 2.38491 370.723Z" fill="#F1CE35"/>
<path d="M134.316 331.89C134.316 342.458 125.693 351.08 115.126 351.08C115.126 340.448 123.683 331.89 134.316 331.89Z" fill="#F1CE35"/>
<path d="M95.806 331.89C95.806 342.457 104.428 351.08 114.996 351.08C114.931 340.447 106.373 331.89 95.806 331.89Z" fill="#F1CE35"/>
<g opacity="0.4">
<path d="M746.3 296.7H716.5V296.5C716.5 280.2 729.8 267 746.1 267H746.2H746.3H746.4C762.7 267 776 280.2 776 296.6V296.8H746.3V296.7Z" fill="#2D6612"/>
</g>
<g opacity="0.4">
<path d="M716.2 356.5C716.2 340.2 729.5 326.9 745.8 326.9C745.8 343.3 732.5 356.5 716.2 356.5Z" fill="#2D6612"/>
<path d="M775.6 356.5C775.6 340.2 762.3 326.9 746 326.9C746 343.3 759.3 356.5 775.6 356.5Z" fill="#2D6612"/>
<path d="M775.6 297.5C775.6 313.8 762.4 327 746 327C746 310.7 759.3 297.5 775.6 297.5Z" fill="#2D6612"/>
<path d="M716.2 297.5C716.2 313.8 729.5 327 745.8 327C745.8 310.7 732.5 297.5 716.2 297.5Z" fill="#2D6612"/>
</g>
<path opacity="0.4" d="M805.5 356.6C821.848 356.6 835.1 343.348 835.1 327C835.1 310.652 821.848 297.4 805.5 297.4C789.152 297.4 775.9 310.652 775.9 327C775.9 343.348 789.152 356.6 805.5 356.6Z" fill="#2D6612"/>
<path opacity="0.4" d="M715.1 297.1L686.2 326L715 354.9L715.1 297.1Z" fill="#2D6612"/>
<path opacity="0.4" d="M657.8 297.1L686.7 326L657.8 354.9V297.1Z" fill="#2D6612"/>
<g opacity="0.4">
<path d="M775.8 296.6C775.8 280.3 789.1 267 805.4 267C805.4 283.4 792.1 296.6 775.8 296.6Z" fill="#2D6612"/>
<path d="M835.2 296.6C835.2 280.3 821.9 267 805.6 267C805.6 283.4 818.9 296.6 835.2 296.6Z" fill="#2D6612"/>
<path d="M835.2 237.5C835.2 253.8 821.9 267.1 805.6 267.1C805.6 250.8 818.9 237.5 835.2 237.5Z" fill="#2D6612"/>
<path d="M775.8 237.5C775.8 253.8 789.1 267.1 805.4 267.1C805.4 250.8 792.1 237.5 775.8 237.5Z" fill="#2D6612"/>
</g>
<g opacity="0.4">
<path d="M685.4 296.3C685.4 280 698.7 266.7 715 266.7C715 283 701.8 296.3 685.4 296.3Z" fill="#2D6612"/>
<path d="M685.6 296.3C685.6 280 672.3 266.7 656 266.7C656 283 669.3 296.3 685.6 296.3Z" fill="#2D6612"/>
<path d="M685.4 266.6C685.5 250.2 698.7 237 715 237C715 253.3 701.8 266.6 685.4 266.6Z" fill="#2D6612"/>
<path d="M685.6 266.6C685.6 250.2 672.3 237 656 237C656 253.3 669.3 266.6 685.6 266.6Z" fill="#2D6612"/>
</g>
</g>
</svg>
