<svg width="40" height="40" viewBox="0 0 40 40" fill="none" xmlns="http://www.w3.org/2000/svg">
<rect x="6" y="6" width="20" height="20" fill="#333333"/>
<path d="M19.9999 0.799805C9.39593 0.799805 0.799927 9.3958 0.799927 19.9998C0.799927 30.6038 9.39593 39.1998 19.9999 39.1998C30.6039 39.1998 39.1999 30.6038 39.1999 19.9998C39.1999 9.3958 30.6039 0.799805 19.9999 0.799805ZM24.5479 14.0678H21.6619C21.3199 14.0678 20.9399 14.5178 20.9399 15.1158V17.1998H24.5499L24.0039 20.1718H20.9399V29.0938H17.5339V20.1718H14.4439V17.1998H17.5339V15.4518C17.5339 12.9438 19.2739 10.9058 21.6619 10.9058H24.5479V14.0678Z" fill="white"/>
</svg>
