<svg width="40" height="40" viewBox="0 0 40 40" fill="none" xmlns="http://www.w3.org/2000/svg">
<path d="M40 20C40 31.0457 31.0457 40 20 40C8.9543 40 0 31.0457 0 20C0 8.95431 8.9543 0 20 0C31.0457 0 40 8.95431 40 20Z" fill="white"/>
<path d="M40 20C40 31.0457 31.0457 40 20 40C8.9543 40 0 31.0457 0 20C0 8.95431 8.9543 0 20 0C31.0457 0 40 8.95431 40 20Z" fill="white"/>
<path d="M19.9996 17.3966C18.566 17.3966 17.3961 18.5665 17.3961 20.0001C17.3961 21.4337 18.566 22.6036 19.9996 22.6036C21.4332 22.6036 22.6031 21.4337 22.6031 20.0001C22.6031 18.5665 21.4332 17.3966 19.9996 17.3966ZM27.8082 20.0001C27.8082 18.922 27.818 17.8536 27.7574 16.7774C27.6969 15.5274 27.4117 14.4181 26.4977 13.504C25.5816 12.588 24.4742 12.3048 23.2242 12.2442C22.1461 12.1837 21.0777 12.1935 20.0016 12.1935C18.9234 12.1935 17.8551 12.1837 16.7789 12.2442C15.5289 12.3048 14.4195 12.5899 13.5055 13.504C12.5894 14.42 12.3062 15.5274 12.2457 16.7774C12.1852 17.8556 12.1949 18.9239 12.1949 20.0001C12.1949 21.0763 12.1852 22.1466 12.2457 23.2227C12.3062 24.4727 12.5914 25.5821 13.5055 26.4962C14.4215 27.4122 15.5289 27.6954 16.7789 27.756C17.857 27.8165 18.9254 27.8067 20.0016 27.8067C21.0797 27.8067 22.148 27.8165 23.2242 27.756C24.4742 27.6954 25.5836 27.4102 26.4977 26.4962C27.4137 25.5802 27.6969 24.4727 27.7574 23.2227C27.8199 22.1466 27.8082 21.0782 27.8082 20.0001ZM19.9996 24.006C17.7828 24.006 15.9937 22.2169 15.9937 20.0001C15.9937 17.7833 17.7828 15.9942 19.9996 15.9942C22.2164 15.9942 24.0055 17.7833 24.0055 20.0001C24.0055 22.2169 22.2164 24.006 19.9996 24.006ZM24.1695 16.7657C23.6519 16.7657 23.234 16.3477 23.234 15.8302C23.234 15.3126 23.6519 14.8946 24.1695 14.8946C24.6871 14.8946 25.1051 15.3126 25.1051 15.8302C25.1052 15.9531 25.0811 16.0748 25.0342 16.1884C24.9872 16.3019 24.9183 16.4051 24.8314 16.492C24.7445 16.579 24.6413 16.6479 24.5277 16.6948C24.4142 16.7418 24.2924 16.7659 24.1695 16.7657Z" fill="#333333"/>
</svg>
