<svg width="72" height="72" viewBox="0 0 72 72" fill="none" xmlns="http://www.w3.org/2000/svg">
<path d="M50.625 39.375C44.325 47.475 24.75 49.5 15.75 49.5L14.625 52.875C16.875 55.5 22.05 60.75 24.75 60.75C28.125 60.75 32.625 63 38.25 63C43.875 63 45 61.875 47.25 60.75C49.05 59.85 54.75 55.125 57.375 52.875C58.5 50.625 60.975 45.9 61.875 45C63 43.875 64.125 36 64.125 34.875C64.125 33.975 59.625 23.25 57.375 18L47.25 12.375C51 18 56.925 31.275 50.625 39.375Z" fill="#4EA824"/>
<path d="M39 48H36V36H33M36 24H36.03M63 36C63 39.5457 62.3016 43.0567 60.9447 46.3325C59.5879 49.6082 57.5991 52.5847 55.0919 55.0919C52.5847 57.5991 49.6082 59.5879 46.3325 60.9447C43.0567 62.3016 39.5457 63 36 63C32.4543 63 28.9433 62.3016 25.6675 60.9447C22.3918 59.5879 19.4153 57.5991 16.9081 55.0919C14.4009 52.5847 12.4121 49.6082 11.0553 46.3325C9.69838 43.0567 9 39.5457 9 36C9 28.8392 11.8446 21.9716 16.9081 16.9081C21.9716 11.8446 28.8392 9 36 9C43.1608 9 50.0284 11.8446 55.0919 16.9081C60.1554 21.9716 63 28.8392 63 36Z" stroke="#333333" stroke-width="4" stroke-linecap="round" stroke-linejoin="round"/>
<circle cx="36" cy="24.75" r="4.5" fill="#333333"/>
</svg>
